name Run_500 03_newCOP3_v24.mot
datacolumns 19
datarows 77
range 2.685 2.761
DataType=double
version=3
OpenSimVersion=4.3-2021-08-27-4bc7ad9
endheader
time	R_ground_force_vx	R_ground_force_vy	R_ground_force_vz	R_ground_force_px	R_ground_force_py	R_ground_force_pz	L_ground_force_vx	L_ground_force_vy	L_ground_force_vz	L_ground_force_px	L_ground_force_py	L_ground_force_pz	R_ground_torque_x	R_ground_torque_y	R_ground_torque_z	L_ground_torque_x	L_ground_torque_y	L_ground_torque_z
2.685	0	0	0	0	0	0	258.039856	1786.572754	17.058302	0.518921	0	-0.386216	0	0	0	0	-4.007592	0
2.686	0	0	0	0	0	0	266.104919	1750.372314	16.309067	0.514382	0	-0.386117	0	0	0	0	-3.72389	0
2.687	0	0	0	0	0	0	273.678101	1713.59729	15.497189	0.509862	0	-0.386025	0	0	0	0	-3.433843	0
2.688	0	0	0	0	0	0	280.715698	1676.279663	14.624469	0.505364	0	-0.385941	0	0	0	0	-3.138016	0
2.689	0	0	0	0	0	0	287.179169	1638.450928	13.69376	0.500893	0	-0.385868	0	0	0	0	-2.83702	0
2.69	0	0	0	0	0	0	293.035858	1600.142212	12.708956	0.49645	0	-0.385807	0	0	0	0	-2.531508	0
2.691	0	0	0	0	0	0	298.259186	1561.384644	11.674959	0.492039	0	-0.38576	0	0	0	0	-2.222169	0
2.692	0	0	0	0	0	0	302.828857	1522.209351	10.597613	0.487659	0	-0.385729	0	0	0	0	-1.909727	0
2.693	0	0	0	0	0	0	306.730713	1482.648438	9.483625	0.483309	0	-0.385715	0	0	0	0	-1.594936	0
2.694	0	0	0	0	0	0	309.956543	1442.734985	8.340458999999999	0.478987	0	-0.38572	0	0	0	0	-1.278576	0
2.695	0	0	0	0	0	0	312.503662	1402.503662	7.176215	0.474691	0	-0.385746	0	0	0	0	-0.961448	0
2.696	0	0	0	0	0	0	314.374329	1361.991333	5.999496	0.470418	0	-0.385793	0	0	0	0	-0.6443719999999999	0
2.697	0	0	0	0	0	0	315.575165	1321.237671	4.819257	0.466162	0	-0.385862	0	0	0	0	-0.328177	0
2.698	0	0	0	0	0	0	316.116577	1280.28479	3.64466	0.46192	0	-0.385954	0	0	0	0	-0.013705	0
2.699	0	0	0	0	0	0	316.012024	1239.178711	2.48491	0.457687	0	-0.386069	0	0	0	-0	0.298205	-0
2.7	0	0	0	0	0	0	315.277313	1197.968628	1.349103	0.453458	0	-0.386206	0	0	0	-0	0.606712	-0
2.701	0	0	0	0	0	0	313.930145	1156.707397	0.246075	0.449228	0	-0.386366	0	0	0	-0	0.910984	-0
2.702	0	0	0	0	0	0	311.989441	1115.45166	-0.815742	0.444995	0	-0.386547	0	0	0	-0	1.210199	-0
2.703	0	0	0	0	0	0	309.474976	1074.261353	-1.828456	0.440754	0	-0.386748	0	0	0	-0	1.503553	-0
2.704	0	0	0	0	0	0	306.406921	1033.199829	-2.784834	0.436503	0	-0.386968	0	0	0	-0	1.790262	-0
2.705	0	0	0	0	0	0	302.805664	992.333313	-3.678404	0.432242	0	-0.387205	0	0	0	-0	2.069569	-0
2.706	0	0	0	0	0	0	298.69165	951.7303470000001	-4.50355	0.42797	0	-0.387456	0	0	0	-0	2.340743	-0
2.707	0	0	0	0	0	0	294.085144	911.461426	-5.255573	0.423692	0	-0.38772	0	0	0	-0	2.603091	-0
2.708	0	0	0	0	0	0	289.006317	871.598389	-5.93075	0.419409	0	-0.387994	0	0	0	-0	2.855953	-0
2.709	0	0	0	0	0	0	283.475281	832.213562	-6.526357	0.41513	0	-0.388275	0	0	0	-0	3.098715	-0
2.71	0	0	0	0	0	0	277.512177	793.3792110000001	-7.040684	0.410863	0	-0.38856	0	0	0	-0	3.3308	-0
2.711	0	0	0	0	0	0	271.13739	755.166382	-7.47303	0.406619	0	-0.388845	0	0	0	-0	3.551683	-0
2.712	0	0	0	0	0	0	264.371552	717.644592	-7.823672	0.402414	0	-0.389129	0	0	0	-0	3.760887	-0
2.713	0	0	0	0	0	0	257.235992	680.880493	-8.093828999999999	0.398265	0	-0.389406	0	0	0	-0	3.957983	-0
2.714	0	0	0	0	0	0	249.752762	644.937439	-8.285603999999999	0.394192	0	-0.389675	0	0	0	-0	4.142597	-0
2.715	0	0	0	0	0	0	241.945023	609.874512	-8.401916	0.390219	0	-0.38993	0	0	0	-0	4.314409	-0
2.716	0	0	0	0	0	0	233.837158	575.7459720000001	-8.446417	0.386371	0	-0.390168	0	0	0	-0	4.473154	-0
2.717	0	0	0	0	0	0	225.455093	542.600342	-8.423408999999999	0.382679	0	-0.390387	0	0	0	-0	4.61862	-0
2.718	0	0	0	0	0	0	216.826477	510.480347	-8.337747999999999	0.379171	0	-0.390581	0	0	0	-0	4.750655	-0
2.719	0	0	0	0	0	0	207.980865	479.42215	-8.194743000000001	0.375882	0	-0.390749	0	0	0	-0	4.869156	-0
2.72	0	0	0	0	0	0	198.94986	449.455292	-8.00006	0.372843	0	-0.390887	0	0	0	-0	4.974082	-0
2.721	0	0	0	0	0	0	189.767227	420.602631	-7.75962	0.370089	0	-0.390993	0	0	0	-0	5.065441	-0
2.722	0	0	0	0	0	0	180.468857	392.880371	-7.479496	0.367651	0	-0.391065	0	0	0	-0	5.143295	-0
2.723	0	0	0	0	0	0	171.092758	366.298401	-7.165827	0.365561	0	-0.391101	0	0	0	-0	5.207758	-0
2.724	0	0	0	0	0	0	161.678848	340.860565	-6.82472	0.363845	0	-0.391102	0	0	0	-0	5.258993	-0
2.725	0	0	0	0	0	0	152.268753	316.565247	-6.462172	0.36253	0	-0.391067	0	0	0	-0	5.29721	-0
2.726	0	0	0	0	0	0	142.905334	293.406006	-6.083989	0.361633	0	-0.390999	0	0	0	-0	5.322667	-0
2.727	0	0	0	0	0	0	133.632309	271.372162	-5.69572	0.361171	0	-0.390898	0	0	0	-0	5.33566	-0
2.728	0	0	0	0	0	0	124.493645	250.449661	-5.302597	0.361153	0	-0.390769	0	0	0	-0	5.336531	-0
2.729	0	0	0	0	0	0	115.532852	230.621628	-4.909481	0.361584	0	-0.390614	0	0	0	-0	5.325655	-0
2.73	0	0	0	0	0	0	106.792328	211.86911	-4.520821	0.362465	0	-0.390438	0	0	0	-0	5.303443	-0
2.731	0	0	0	0	0	0	98.31257600000001	194.171677	-4.140619	0.363791	0	-0.390245	0	0	0	-0	5.27034	-0
2.732	0	0	0	0	0	0	90.131424	177.507813	-3.772406	0.365558	0	-0.390039	0	0	0	-0	5.226816	-0
2.733	0	0	0	0	0	0	82.28334	161.855331	-3.419223	0.36776	0	-0.389823	0	0	0	-0	5.173369	-0
2.734	0	0	0	0	0	0	74.79872899999999	147.191498	-3.083612	0.370396	0	-0.389599	0	0	0	-0	5.110519	-0
2.735	0	0	0	0	0	0	67.703384	133.493164	-2.767617	0.373467	0	-0.389366	0	0	0	-0	5.038804	-0
2.736	0	0	0	0	0	0	61.018024	120.736565	-2.472786	0.376984	0	-0.38912	0	0	0	-0	4.95878	-0
2.737	0	0	0	0	0	0	54.75803	108.897202	-2.200187	0.38097	0	-0.388853	0	0	0	-0	4.871016	-0
2.738	0	0	0	0	0	0	48.93327	97.94948599999999	-1.950424	0.38546	0	-0.388553	0	0	0	-0	4.776089	-0
2.739	0	0	0	0	0	0	43.548138	87.866417	-1.723665	0.390508	0	-0.3882	0	0	0	-0	4.674586	-0
2.74	0	0	0	0	0	0	38.601727	78.619225	-1.519671	0.396182	0	-0.387767	0	0	0	-0	4.567096	-0
2.741	0	0	0	0	0	0	34.088154	70.177032	-1.337829	0.402569	0	-0.387218	0	0	0	-0	4.454211	-0
2.742	0	0	0	0	0	0	29.996992	62.50663	-1.177198	0.409769	0	-0.386509	0	0	0	-0	4.336523	-0
2.743	0	0	0	0	0	0	26.313816	55.572338	-1.036544	0.417891	0	-0.385585	0	0	0	-0	4.214617	-0
2.744	0	0	0	0	0	0	23.020788	49.335995	-0.914396	0.427041	0	-0.38438	0	0	0	-0	4.089075	-0
2.745	0	0	0	0	0	0	20.097294	43.757103	-0.809087	0.437311	0	-0.382821	0	0	0	-0	3.960471	-0
2.746	0	0	0	0	0	0	17.520565	38.793125	-0.718807	0.448757	0	-0.380826	0	0	0	-0	3.829366	-0
2.747	0	0	0	0	0	0	15.266273	34.399891	-0.641657	0.46138	0	-0.378309	0	0	0	-0	3.696312	-0
2.748	0	0	0	0	0	0	13.30908	30.532125	-0.575693	0.4751	0	-0.375183	0	0	0	-0	3.561844	-0
2.749	0	0	0	0	0	0	11.623111	27.144081	-0.518981	0.489734	0	-0.37137	0	0	0	-0	3.426484	-0
2.75	0	0	0	0	0	0	10.182356	24.19017	-0.469638	0.504977	0	-0.366802	0	0	0	-0	3.290734	-0
2.751	0	0	0	0	0	0	8.960993999999999	21.625643	-0.425878	0.520396	0	-0.361432	0	0	0	-0	3.155079	-0
2.752	0	0	0	0	0	0	7.933644	19.407211	-0.386047	0.5354370000000001	0	-0.355239	0	0	0	-0	3.019984	-0
2.753	0	0	0	0	0	0	7.075559	17.493622	-0.348657	0.549458	0	-0.34823	0	0	0	-0	2.885893	-0
2.754	0	0	0	0	0	0	6.362768	15.846128	-0.312411	0.561775	0	-0.340445	0	0	0	-0	2.753227	-0
2.755	0	0	0	0	0	0	5.772204	14.428869	-0.276224	0.571725	0	-0.331949	0	0	0	-0	2.622386	-0
2.756	0	0	0	0	0	0	5.28181	13.209121	-0.239234	0.578744	0	-0.32283	0	0	0	-0	2.493744	-0
2.757	0	0	0	0	0	0	4.870661	12.157431	-0.200804	0.582429	0	-0.313184	0	0	0	-0	2.367652	-0
2.758	0	0	0	0	0	0	4.519099	11.247643	-0.160526	0.5825939999999999	0	-0.30311	0	0	0	-0	2.244437	-0
2.759	0	0	0	0	0	0	4.208889	10.456824	-0.118207	0.579307	0	-0.2927	0	0	0	-0	2.124402	-0
2.76	0	0	0	0	0	0	0	0	0	0	0	0	0	0	0	0	0	0
2.761	0	0	0	0	0	0	0	0	0	0	0	0	0	0	0	0	0	0
